<?xml version="1.0" encoding="UTF-8" standalone="no"?>
<!-- Created with Inkscape (http://www.inkscape.org/) -->

<svg
   width="249"
   height="44"
   viewBox="0 0 249 44"
   version="1.1"
   id="svg5"
   xml:space="preserve"
   xmlns="http://www.w3.org/2000/svg"
   xmlns:svg="http://www.w3.org/2000/svg"><defs
     id="defs2" /><g
     id="layer1"
     transform="translate(-64.946411,-254.82059)"><g
       id="g56"><rect
         width="249"
         height="44"
         rx="22"
         fill="#5a78ff"
         id="rect30"
         x="64.946411"
         y="254.82059"
         ry="22"
         style="stroke-width:1" /><path
         d="m 88.864426,271.24285 h 4.4215 q 1.6465,0 3.0155,0.666 1.3875,0.6475 2.2015,1.998 0.8325,1.3505 0.8325,3.404 0,2.0535 -0.8325,3.404 -0.814,1.332 -2.2015,1.998 -1.369,0.666 -3.0155,0.666 h -4.4215 z m 4.4215,1.9055 h -2.294 v 8.325 h 2.294 q 1.036,0 1.887,-0.444 0.851,-0.4625 1.369,-1.3875 0.518,-0.925 0.518,-2.331 0,-1.406 -0.518,-2.331 -0.518,-0.925 -1.369,-1.369 -0.851,-0.4625 -1.887,-0.4625 z m 12.099004,0.6475 q 1.2765,0 2.3125,0.592 1.0545,0.592 1.6835,1.6835 0.629,1.0915 0.629,2.627 0,1.517 -0.629,2.627 -0.629,1.11 -1.6835,1.702 -1.036,0.592 -2.3125,0.592 -1.258,0 -2.3125,-0.592 -1.036,-0.592 -1.665,-1.702 -0.629,-1.11 -0.629,-2.627 0,-1.5355 0.629,-2.627 0.629,-1.0915 1.665,-1.6835 1.0545,-0.592 2.3125,-0.592 z m 0,1.739 q -1.036,0 -1.813,0.7955 -0.7585,0.777 -0.7585,2.368 0,1.6095 0.7585,2.405 0.777,0.777 1.813,0.777 1.0545,0 1.813,-0.777 0.777,-0.7955 0.777,-2.405 0,-1.591 -0.777,-2.368 -0.7585,-0.7955 -1.813,-0.7955 z m 10.95201,0.0925 q -1.0175,0 -1.665,0.592 -0.6475,0.5735 -0.6475,1.8315 v 5.328 h -2.0165 v -9.324 h 2.0165 v 1.406 q 0.481,-0.9065 1.3505,-1.2765 0.8695,-0.3885 1.702,-0.3885 0.8325,0 1.5725,0.3145 0.7585,0.3145 1.221,1.036 0.4625,0.7215 0.4625,1.9795 v 6.253 h -2.035 v -5.3835 q 0,-1.295 -0.5735,-1.8315 -0.5735,-0.5365 -1.3875,-0.5365 z m 9.98998,7.992 q -0.7215,0 -1.443,-0.296 -0.7215,-0.3145 -1.332,-0.925 -0.592,-0.6105 -0.962,-1.554 -0.3515,-0.9435 -0.3515,-2.22 0,-1.628 0.6105,-2.701 0.629,-1.073 1.5725,-1.591 0.9435,-0.5365 1.924,-0.5365 1.0915,0 1.8685,0.4995 0.777,0.481 1.2765,1.5725 v -1.813 h 2.0165 v 9.324 h -2.0165 v -1.9055 q -0.3515,0.851 -1.1285,1.4985 -0.777,0.6475 -2.035,0.6475 z m 0.5735,-8.0845 q -0.629,0 -1.2395,0.3515 -0.6105,0.333 -0.999,1.036 -0.3885,0.703 -0.3885,1.813 0,1.073 0.3885,1.776 0.3885,0.6845 0.9805,1.0175 0.6105,0.333 1.2395,0.333 0.703,0 1.295,-0.3145 0.592,-0.333 0.9435,-1.0175 0.37,-0.6845 0.37,-1.7945 0,-1.0915 -0.37,-1.7945 -0.3515,-0.703 -0.9435,-1.0545 -0.592,-0.3515 -1.2765,-0.3515 z m 7.76999,-3.737 2.0165,-0.3145 v 2.5715 h 2.331 v 1.628 h -2.331 v 5.0505 q 0,0.5365 0.2405,0.814 0.259,0.2775 0.8695,0.2775 0.296,0 0.4995,-0.0185 0.2035,-0.037 0.481,-0.111 l 0.3145,1.628 q -0.3515,0.111 -0.814,0.2035 -0.4625,0.0925 -0.888,0.0925 -1.406,0 -2.072,-0.74 -0.6475,-0.7585 -0.6475,-2.0535 v -5.143 h -1.739 v -1.628 h 1.739 z m 10.323,3.737 q -0.999,0 -1.665,0.5365 -0.666,0.518 -0.888,1.5725 h 5.0505 q -0.1295,-1.1285 -0.8325,-1.6095 -0.6845,-0.4995 -1.665,-0.4995 z m 4.4215,3.626 h -7.0485 q 0.111,1.2395 0.7955,1.9795 0.703,0.74 1.961,0.74 1.147,0 1.665,-0.4625 0.518,-0.4625 0.6845,-1.258 l 1.8685,0.3145 q -0.1665,1.073 -0.8325,1.776 -0.666,0.703 -1.554,1.036 -0.888,0.333 -1.7575,0.333 -1.369,0 -2.479,-0.592 -1.11,-0.592 -1.7575,-1.702 -0.6475,-1.11 -0.6475,-2.6455 0,-1.4985 0.629,-2.59 0.629,-1.11 1.702,-1.702 1.073,-0.592 2.4235,-0.592 1.2765,0 2.257,0.6105 0.9805,0.592 1.5355,1.6465 0.555,1.0545 0.555,2.442 z m 20.22052,-5.106 -3.3485,9.324 h -1.739 l -2.146,-5.9015 -2.146,5.9015 h -1.7575 l -3.3485,-9.324 h 2.257 l 1.998,6.771 2.2385,-6.771 h 1.4985 l 2.257,6.808 1.998,-6.808 z m 1.38748,0 h 2.035 v 9.324 h -2.035 z m 1.0175,-4.033 q 0.4995,0 0.851,0.37 0.3515,0.3515 0.3515,0.851 0,0.4995 -0.3515,0.851 -0.3515,0.3515 -0.851,0.3515 -0.518,0 -0.8695,-0.3515 -0.3515,-0.3515 -0.3515,-0.851 0,-0.4995 0.3515,-0.851 0.3515,-0.37 0.8695,-0.37 z m 4.181,1.776 2.0165,-0.3145 v 2.5715 h 2.331 v 1.628 h -2.331 v 5.0505 q 0,0.5365 0.2405,0.814 0.259,0.2775 0.8695,0.2775 0.296,0 0.4995,-0.0185 0.2035,-0.037 0.481,-0.111 l 0.3145,1.628 q -0.3515,0.111 -0.814,0.2035 -0.4625,0.0925 -0.888,0.0925 -1.406,0 -2.072,-0.74 -0.6475,-0.7585 -0.6475,-2.0535 v -5.143 h -1.739 v -1.628 h 1.739 z m 6.2345,-0.962 h 2.0165 v 4.625 q 0.333,-0.6105 0.8325,-0.9805 0.518,-0.37 1.0915,-0.518 0.5735,-0.1665 1.0545,-0.1665 0.9065,0 1.6465,0.3145 0.7585,0.3145 1.221,1.036 0.4625,0.7215 0.4625,1.9795 v 6.253 h -2.035 v -5.3835 q 0,-1.295 -0.5735,-1.8315 -0.555,-0.5365 -1.369,-0.5365 -1.0175,0 -1.6835,0.592 -0.6475,0.5735 -0.6475,1.8315 v 5.328 h -2.0165 z"
         id="text30"
         style="font-weight:500;font-size:18.5px;line-height:0.7;font-family:'Vipps Text-Web';-inkscape-font-specification:'Vipps Text-Web Medium';text-align:end;letter-spacing:0px;word-spacing:0px;text-anchor:end;fill:#ffffff;stroke-width:4;stroke-linecap:round"
         aria-label="Donate with" /><path
         d="m 199.19117,283.3551 h -2.109 q -0.185,0 -0.259,-0.111 -0.074,-0.111 -0.0185,-0.296 l 3.7555,-11.877 q 0.037,-0.1295 0.1295,-0.2035 0.111,-0.0925 0.222,-0.0925 h 1.887 q 0.111,0 0.2035,0.0925 0.111,0.074 0.1665,0.2035 l 2.923,7.4925 q 0.037,0.111 0.1295,0.1295 0.0925,0 0.1295,-0.1295 l 2.9045,-7.4925 q 0.0555,-0.1295 0.148,-0.2035 0.111,-0.0925 0.222,-0.0925 h 1.887 q 0.111,0 0.2035,0.0925 0.111,0.074 0.148,0.2035 l 3.6815,11.877 q 0.0555,0.1665 -0.037,0.296 -0.074,0.111 -0.2405,0.111 h -2.2385 q -0.1295,0 -0.222,-0.0555 -0.074,-0.074 -0.111,-0.2035 l -2.3865,-7.7145 q -0.0185,-0.111 -0.1295,-0.111 -0.0925,0 -0.1295,0.111 l -2.812,7.659 q -0.0555,0.148 -0.1665,0.2405 -0.0925,0.074 -0.2405,0.074 h -1.3135 q -0.148,0 -0.2405,-0.074 -0.0925,-0.074 -0.148,-0.2405 l -2.9045,-7.659 q -0.037,-0.111 -0.1295,-0.111 -0.074,0 -0.111,0.111 l -2.442,7.7145 q -0.037,0.1295 -0.1295,0.2035 -0.0925,0.0555 -0.222,0.0555 z m 26.68051,-4.6435 q 0,2.072 -1.4245,3.478 -1.406,1.406 -3.5335,1.406 -2.109,0 -3.5335,-1.406 -1.4245,-1.406 -1.4245,-3.478 0,-2.072 1.406,-3.478 1.4245,-1.406 3.552,-1.406 2.1275,0 3.5335,1.406 1.4245,1.3875 1.4245,3.478 z m -7.4,0 q 0,1.073 0.7215,1.8315 0.7215,0.7585 1.7205,0.7585 1.0175,0 1.7205,-0.7585 0.7215,-0.7585 0.7215,-1.8315 0,-1.073 -0.7215,-1.8315 -0.703,-0.7585 -1.7205,-0.7585 -0.999,0 -1.7205,0.7585 -0.7215,0.7585 -0.7215,1.8315 z m 18.70699,0 q 0,2.0535 -1.3135,3.478 -1.3135,1.406 -3.2375,1.406 -0.666,0 -1.258,-0.2405 -0.592,-0.222 -1.258,-0.7585 -0.148,-0.111 -0.259,-0.0555 -0.0925,0.037 -0.0925,0.222 v 0.2405 q 0,0.148 -0.111,0.259 -0.0925,0.0925 -0.222,0.0925 h -1.739 q -0.1295,0 -0.2405,-0.111 -0.111,-0.111 -0.111,-0.2405 v -11.877 q 0,-0.148 0.111,-0.2405 0.111,-0.111 0.2405,-0.111 h 1.8315 q 0.1295,0 0.222,0.111 0.111,0.0925 0.111,0.2405 v 3.3855 q 0,0.185 0.111,0.222 0.1295,0.037 0.3145,-0.0925 0.555,-0.407 1.1655,-0.6105 0.6105,-0.2035 1.258,-0.2035 1.887,0 3.182,1.4245 1.295,1.406 1.295,3.4595 z m -7.4,0 q 0,1.073 0.703,1.8315 0.703,0.74 1.7205,0.74 1.0175,0 1.739,-0.74 0.7215,-0.7585 0.7215,-1.8315 0,-1.073 -0.7215,-1.8315 -0.7215,-0.7585 -1.739,-0.7585 -0.999,0 -1.7205,0.7585 -0.703,0.7585 -0.703,1.8315 z m 11.02949,4.6435 h -1.8315 q -0.1295,0 -0.2405,-0.0925 -0.0925,-0.111 -0.0925,-0.259 v -8.584 q 0,-0.148 0.0925,-0.2405 0.111,-0.111 0.2405,-0.111 h 1.8315 q 0.148,0 0.2405,0.111 0.111,0.0925 0.111,0.2405 v 8.584 q 0,0.1295 -0.111,0.2405 -0.0925,0.111 -0.2405,0.111 z m 0.518,-11.7105 q 0,0.5735 -0.4255,0.999 -0.407,0.407 -0.9805,0.407 -0.5735,0 -0.999,-0.407 -0.407,-0.4255 -0.407,-0.999 0,-0.5735 0.407,-0.9805 0.4255,-0.4255 0.999,-0.4255 0.5735,0 0.9805,0.4255 0.4255,0.407 0.4255,0.9805 z m 5.09101,11.803 q -1.887,0 -2.664,-0.7215 -0.7585,-0.74 -0.7585,-2.516 v -9.0835 q 0,-0.148 0.0925,-0.2405 0.111,-0.111 0.2405,-0.111 h 1.8315 q 0.148,0 0.2405,0.111 0.111,0.0925 0.111,0.2405 v 9.139 q 0,0.481 0.222,0.74 0.2405,0.2405 0.6845,0.2405 0.148,0 0.2405,0.111 0.111,0.0925 0.111,0.2405 v 1.517 q 0,0.1295 -0.111,0.2405 -0.0925,0.0925 -0.2405,0.0925 z m 10.06753,-2.5715 q -0.4625,1.221 -1.702,1.9795 -1.221,0.74 -2.738,0.74 -2.0905,0 -3.4595,-1.369 -1.3505,-1.369 -1.3505,-3.478 0,-2.109 1.3875,-3.515 1.3875,-1.406 3.4595,-1.406 2.0535,0 3.404,1.4245 1.369,1.406 1.369,3.5335 0,0.3145 -0.111,0.4625 -0.0925,0.148 -0.3145,0.148 h -6.364 q -0.111,0 -0.1665,0.074 -0.0555,0.0555 -0.037,0.1665 0.0925,0.7955 0.7215,1.3135 0.6475,0.518 1.5355,0.518 0.518,0 0.962,-0.2035 0.4625,-0.2035 0.7955,-0.592 0.148,-0.1665 0.2775,-0.222 0.148,-0.074 0.3145,-0.074 h 1.702 q 0.222,0 0.296,0.148 0.0925,0.1295 0.0185,0.3515 z m -6.549,-3.2375 q -0.037,0.1295 0,0.2035 0.037,0.0555 0.148,0.0555 h 3.9035 q 0.0925,0 0.1295,-0.037 0.0555,-0.0555 0.037,-0.1665 -0.148,-0.7585 -0.74,-1.2395 -0.592,-0.4995 -1.369,-0.4995 -0.74,0 -1.332,0.481 -0.592,0.4625 -0.777,1.2025 z m 10.80748,5.7165 h -1.924 q -0.1295,0 -0.2405,-0.0925 -0.0925,-0.111 -0.0925,-0.259 v -11.877 q 0,-0.148 0.0925,-0.2405 0.111,-0.111 0.2405,-0.111 h 5.8275 q 2.0535,0 3.256,1.1285 1.221,1.1285 1.221,3.034 0,1.85 -1.3135,3.034 -1.3135,1.184 -3.293,1.184 h -3.0895 q -0.1665,0 -0.259,0.0925 -0.074,0.0925 -0.074,0.259 v 3.4965 q 0,0.1295 -0.111,0.2405 -0.0925,0.111 -0.2405,0.111 z m 0.666,-6.3455 h 3.108 q 0.851,0 1.406,-0.6105 0.5735,-0.6105 0.5735,-1.443 0,-0.851 -0.555,-1.406 -0.5365,-0.5735 -1.4245,-0.5735 h -3.108 q -0.1665,0 -0.2405,0.0925 -0.074,0.074 -0.074,0.2405 v 3.367 q 0,0.1665 0.074,0.259 0.074,0.074 0.2405,0.074 z m 15.67299,5.3465 q -0.7215,0.666 -1.4245,0.962 -0.703,0.2775 -1.554,0.2775 -1.9055,0 -3.2375,-1.406 -1.3135,-1.4245 -1.3135,-3.478 0,-2.0535 1.332,-3.4595 1.3505,-1.4245 3.256,-1.4245 0.666,0 1.2395,0.222 0.592,0.222 1.221,0.7215 0.1295,0.111 0.2405,0.0925 0.111,-0.0185 0.111,-0.185 v -0.2775 q 0,-0.148 0.0925,-0.2405 0.111,-0.0925 0.2405,-0.0925 h 1.739 q 0.148,0 0.2405,0.111 0.111,0.0925 0.111,0.2405 v 6.1235 q 0,0.333 0.111,0.4995 0.1295,0.1665 0.37,0.185 0.1295,0.0185 0.222,0.111 0.0925,0.074 0.0925,0.185 v 1.6095 q 0,0.1295 -0.0925,0.222 -0.0925,0.0925 -0.222,0.0925 -0.888,0 -1.4615,-0.259 -0.5735,-0.259 -0.888,-0.7955 -0.0925,-0.148 -0.2035,-0.148 -0.0925,-0.0185 -0.222,0.111 z m -4.995,-3.6445 q 0,1.073 0.703,1.8315 0.7215,0.7585 1.739,0.7585 1.0175,0 1.7205,-0.74 0.703,-0.7585 0.703,-1.85 0,-1.0915 -0.703,-1.8315 -0.703,-0.7585 -1.7205,-0.7585 -1.0175,0 -1.739,0.7585 -0.703,0.7585 -0.703,1.8315 z m 9.08701,8.251 q -0.1295,0 -0.2405,-0.111 -0.111,-0.0925 -0.111,-0.2405 v -1.4985 q 0,-0.1295 0.0925,-0.2405 0.111,-0.0925 0.259,-0.0925 0.9805,0 1.7205,-0.4995 0.7585,-0.481 0.9435,-1.2765 0.0555,-0.185 0.037,-0.3515 -0.0185,-0.1665 -0.111,-0.3885 l -3.404,-7.696 q -0.074,-0.2035 0.0185,-0.3515 0.0925,-0.148 0.2775,-0.148 h 1.8315 q 0.111,0 0.2035,0.0925 0.0925,0.074 0.1665,0.2405 l 2.1275,4.921 q 0.1295,0.296 0.2775,0.296 0.148,-0.0185 0.2775,-0.3145 l 2.035,-4.9395 q 0.0555,-0.1665 0.1295,-0.222 0.0925,-0.074 0.222,-0.074 h 1.7575 q 0.185,0 0.2775,0.148 0.111,0.1295 0.037,0.296 l -3.4965,8.3065 q -0.9805,2.3125 -2.1645,3.219 -1.184,0.925 -3.1635,0.925 z"
         id="text31"
         style="font-size:18.5px;line-height:0.7;font-family:Paytype-Bd;-inkscape-font-specification:Paytype-Bd;text-align:end;letter-spacing:-0.2px;word-spacing:0px;text-anchor:end;fill:#ffffff;stroke-width:4;stroke-linecap:round"
         aria-label="MobilePay" /></g></g><style
     id="style1" /></svg>
