<?xml version="1.0" encoding="UTF-8" standalone="no"?>
<!-- Created with Inkscape (http://www.inkscape.org/) -->

<svg
   width="220"
   height="44"
   viewBox="0 0 220 44"
   version="1.1"
   id="svg5"
   xml:space="preserve"
   xmlns="http://www.w3.org/2000/svg"
   xmlns:svg="http://www.w3.org/2000/svg"><defs
     id="defs2" /><g
     id="layer1"
     transform="translate(-64.946411,-195.67328)"><g
       id="g51"><rect
         width="220"
         height="44"
         rx="22"
         fill="#ff5b24"
         id="rect29"
         x="64.946411"
         y="195.67328"
         style="stroke-width:0.999997"
         ry="22" /><path
         fill-rule="evenodd"
         clip-rule="evenodd"
         d="m 260.9126,216.05166 c -0.72,-2.7477 -2.469,-3.8384 -4.855,-3.8384 -1.934,0 -4.361,1.0907 -4.361,3.7171 0,1.6969 1.173,3.0305 3.085,3.3741 l 1.811,0.323 c 1.234,0.2221 1.584,0.6869 1.584,1.3132 0,0.7071 -0.761,1.111 -1.893,1.111 -1.481,0 -2.406,-0.5252 -2.551,-2.0001 l -2.612,0.4041 c 0.411,2.8484 2.962,4.0205 5.266,4.0205 2.181,0 4.505,-1.2528 4.505,-3.778 0,-1.7174 -1.049,-2.9696 -3.003,-3.3337 l -1.995,-0.3633 c -1.112,-0.202 -1.482,-0.7475 -1.482,-1.2728 0,-0.6667 0.72,-1.0906 1.708,-1.0906 1.255,0 2.139,0.4239 2.18,1.8178 z m -58.075,4.3229 2.715,-7.8585 h 3.188 l -4.731,11.6566 h -2.366 l -4.731,-11.6563 h 3.188 z m 16.683,-4.5249 c 0,0.9291 -0.74,1.5756 -1.604,1.5756 -0.864,0 -1.605,-0.6465 -1.605,-1.5756 0,-0.9294 0.741,-1.5757 1.605,-1.5757 0.864,0 1.605,0.6463 1.605,1.5757 z m 0.494,4.1213 c -1.07,1.3734 -2.201,2.3229 -4.197,2.323 -2.036,0 -3.62,-1.2121 -4.854,-2.9898 -0.494,-0.7274 -1.255,-0.8889 -1.811,-0.505 -0.514,0.3637 -0.637,1.1314 -0.164,1.7981 1.707,2.5657 4.073,4.0603 6.829,4.0603 2.531,0 4.506,-1.2119 6.048,-3.2322 0.576,-0.7473 0.556,-1.515 0,-1.9393 -0.514,-0.4044 -1.275,-0.2624 -1.851,0.4849 z m 7.098,-1.6568 c 0,2.384 1.399,3.6367 2.963,3.6367 1.48,0 3.003,-1.1719 3.003,-3.6367 0,-2.4245 -1.523,-3.5959 -2.983,-3.5959 -1.584,0 -2.983,1.111 -2.983,3.5959 z m 0,-4.1815 v -1.5964 h -2.9 v 15.677 h 2.9 v -5.576 c 0.967,1.2931 2.222,1.8389 3.641,1.8389 2.654,0 5.246,-2.0608 5.246,-6.3031 0,-4.061 -2.695,-5.9596 -4.999,-5.9596 -1.831,0 -3.086,0.8281 -3.888,1.9192 z m 13.928,4.1815 c 0,2.384 1.398,3.6367 2.962,3.6367 1.481,0 3.003,-1.1719 3.003,-3.6367 0,-2.4245 -1.522,-3.5959 -2.983,-3.5959 -1.584,0 -2.983,1.111 -2.983,3.5959 z m 0,-4.1815 v -1.5964 h -0.001 -2.9 v 15.677 h 2.9 v -5.576 c 0.967,1.2931 2.222,1.8389 3.641,1.8389 2.654,0 5.246,-2.0608 5.246,-6.3031 0,-4.061 -2.695,-5.9596 -4.999,-5.9596 -1.831,0 -3.085,0.8281 -3.887,1.9192 z"
         fill="#ffffff"
         id="path29" /><path
         d="m 88.980148,212.09554 h 4.4215 q 1.6465,0 3.0155,0.666 1.3875,0.6475 2.2015,1.998 0.8325,1.3505 0.8325,3.404 0,2.0535 -0.8325,3.404 -0.814,1.332 -2.2015,1.998 -1.369,0.666 -3.0155,0.666 h -4.4215 z m 4.4215,1.9055 h -2.294 v 8.325 h 2.294 q 1.036,0 1.887,-0.444 0.851,-0.4625 1.369,-1.3875 0.518,-0.925 0.518,-2.331 0,-1.406 -0.518,-2.331 -0.518,-0.925 -1.369,-1.369 -0.851,-0.4625 -1.887,-0.4625 z m 12.099002,0.6475 q 1.2765,0 2.3125,0.592 1.0545,0.592 1.6835,1.6835 0.629,1.0915 0.629,2.627 0,1.517 -0.629,2.627 -0.629,1.11 -1.6835,1.702 -1.036,0.592 -2.3125,0.592 -1.258,0 -2.3125,-0.592 -1.036,-0.592 -1.665,-1.702 -0.629,-1.11 -0.629,-2.627 0,-1.5355 0.629,-2.627 0.629,-1.0915 1.665,-1.6835 1.0545,-0.592 2.3125,-0.592 z m 0,1.739 q -1.036,0 -1.813,0.7955 -0.7585,0.777 -0.7585,2.368 0,1.6095 0.7585,2.405 0.777,0.777 1.813,0.777 1.0545,0 1.813,-0.777 0.777,-0.7955 0.777,-2.405 0,-1.591 -0.777,-2.368 -0.7585,-0.7955 -1.813,-0.7955 z m 10.95201,0.0925 q -1.0175,0 -1.665,0.592 -0.6475,0.5735 -0.6475,1.8315 v 5.328 h -2.0165 v -9.324 h 2.0165 v 1.406 q 0.481,-0.9065 1.3505,-1.2765 0.8695,-0.3885 1.702,-0.3885 0.8325,0 1.5725,0.3145 0.7585,0.3145 1.221,1.036 0.4625,0.7215 0.4625,1.9795 v 6.253 h -2.035 v -5.3835 q 0,-1.295 -0.5735,-1.8315 -0.5735,-0.5365 -1.3875,-0.5365 z m 9.98999,7.992 q -0.7215,0 -1.443,-0.296 -0.7215,-0.3145 -1.332,-0.925 -0.592,-0.6105 -0.962,-1.554 -0.3515,-0.9435 -0.3515,-2.22 0,-1.628 0.6105,-2.701 0.629,-1.073 1.5725,-1.591 0.9435,-0.5365 1.924,-0.5365 1.0915,0 1.8685,0.4995 0.777,0.481 1.2765,1.5725 v -1.813 h 2.0165 v 9.324 h -2.0165 v -1.9055 q -0.3515,0.851 -1.1285,1.4985 -0.777,0.6475 -2.035,0.6475 z m 0.5735,-8.0845 q -0.629,0 -1.2395,0.3515 -0.6105,0.333 -0.999,1.036 -0.3885,0.703 -0.3885,1.813 0,1.073 0.3885,1.776 0.3885,0.6845 0.9805,1.0175 0.6105,0.333 1.2395,0.333 0.703,0 1.295,-0.3145 0.592,-0.333 0.9435,-1.0175 0.37,-0.6845 0.37,-1.7945 0,-1.0915 -0.37,-1.7945 -0.3515,-0.703 -0.9435,-1.0545 -0.592,-0.3515 -1.2765,-0.3515 z m 7.76998,-3.737 2.0165,-0.3145 v 2.5715 h 2.331 v 1.628 h -2.331 v 5.0505 q 0,0.5365 0.2405,0.814 0.259,0.2775 0.8695,0.2775 0.296,0 0.4995,-0.0185 0.2035,-0.037 0.481,-0.111 l 0.3145,1.628 q -0.3515,0.111 -0.814,0.2035 -0.4625,0.0925 -0.888,0.0925 -1.406,0 -2.072,-0.74 -0.6475,-0.7585 -0.6475,-2.0535 v -5.143 h -1.739 v -1.628 h 1.739 z m 10.323,3.737 q -0.999,0 -1.665,0.5365 -0.666,0.518 -0.888,1.5725 h 5.0505 q -0.1295,-1.1285 -0.8325,-1.6095 -0.6845,-0.4995 -1.665,-0.4995 z m 4.4215,3.626 h -7.0485 q 0.111,1.2395 0.7955,1.9795 0.703,0.74 1.961,0.74 1.147,0 1.665,-0.4625 0.518,-0.4625 0.6845,-1.258 l 1.8685,0.3145 q -0.1665,1.073 -0.8325,1.776 -0.666,0.703 -1.554,1.036 -0.888,0.333 -1.7575,0.333 -1.369,0 -2.479,-0.592 -1.11,-0.592 -1.7575,-1.702 -0.6475,-1.11 -0.6475,-2.6455 0,-1.4985 0.629,-2.59 0.629,-1.11 1.702,-1.702 1.073,-0.592 2.4235,-0.592 1.2765,0 2.257,0.6105 0.9805,0.592 1.5355,1.6465 0.555,1.0545 0.555,2.442 z m 20.22052,-5.106 -3.3485,9.324 h -1.739 l -2.146,-5.9015 -2.146,5.9015 h -1.7575 l -3.3485,-9.324 h 2.257 l 1.998,6.771 2.2385,-6.771 h 1.4985 l 2.257,6.808 1.998,-6.808 z m 1.38749,0 h 2.035 v 9.324 h -2.035 z m 1.0175,-4.033 q 0.4995,0 0.851,0.37 0.3515,0.3515 0.3515,0.851 0,0.4995 -0.3515,0.851 -0.3515,0.3515 -0.851,0.3515 -0.518,0 -0.8695,-0.3515 -0.3515,-0.3515 -0.3515,-0.851 0,-0.4995 0.3515,-0.851 0.3515,-0.37 0.8695,-0.37 z m 4.181,1.776 2.0165,-0.3145 v 2.5715 h 2.331 v 1.628 h -2.331 v 5.0505 q 0,0.5365 0.2405,0.814 0.259,0.2775 0.8695,0.2775 0.296,0 0.4995,-0.0185 0.2035,-0.037 0.481,-0.111 l 0.3145,1.628 q -0.3515,0.111 -0.814,0.2035 -0.4625,0.0925 -0.888,0.0925 -1.406,0 -2.072,-0.74 -0.6475,-0.7585 -0.6475,-2.0535 v -5.143 h -1.739 v -1.628 h 1.739 z m 6.2345,-0.962 h 2.0165 v 4.625 q 0.333,-0.6105 0.8325,-0.9805 0.518,-0.37 1.0915,-0.518 0.5735,-0.1665 1.0545,-0.1665 0.9065,0 1.6465,0.3145 0.7585,0.3145 1.221,1.036 0.4625,0.7215 0.4625,1.9795 v 6.253 h -2.035 v -5.3835 q 0,-1.295 -0.5735,-1.8315 -0.555,-0.5365 -1.369,-0.5365 -1.0175,0 -1.6835,0.592 -0.6475,0.5735 -0.6475,1.8315 v 5.328 h -2.0165 z"
         id="text32"
         style="font-weight:500;font-size:18.5px;line-height:0.7;font-family:'Vipps Text-Web';-inkscape-font-specification:'Vipps Text-Web Medium';text-align:end;letter-spacing:0px;word-spacing:0px;text-anchor:end;fill:#ffffff;stroke-width:4;stroke-linecap:round"
         aria-label="Donate with" /></g></g><style
     id="style1" /></svg>
